# xmcd
#
# Track frame offsets: 
#        150
#        11458
#        24727
#        35296
#        46982
#        61263
#        73458
#        89572
#        103980
#        119840
#        132204
#        145073
#        158362
#
# Disc length: 2299 seconds
#
# Revision: 0
# Processed by: cddbd v1.5.1PL0 Copyright (c) Steve Scherf et al.
# Submitted via: ExactAudioCopy v0.95b2
#
DISCID=b608f90d
DTITLE=Fragment - The Way To Your Heart
DYEAR=2005
DGENRE=Bluegrass
TTITLE0=The Way To Your Heart
TTITLE1=In The Shadow Of Doubt
TTITLE2=My Town
TTITLE3=Momma
TTITLE4=Storm Are On The Ocean
TTITLE5=Grey Eagle
TTITLE6=Go Down Easy
TTITLE7=Talkin´ Through A Broken Heart
TTITLE8=Mercy Railroad
TTITLE9=Farewell Blues
TTITLE10=No Place Such As Home
TTITLE11=My Window Faces The South
TTITLE12=Swimmin´ In The Jordan
EXTD=
EXTT0=
EXTT1=
EXTT2=
EXTT3=
EXTT4=
EXTT5=
EXTT6=
EXTT7=
EXTT8=
EXTT9=
EXTT10=
EXTT11=
EXTT12=
PLAYORDER=
